<?xml version="1.0" standalone="no"?>
 <!DOCTYPE svg PUBLIC "-//W3C//DTD SVG 1.1//EN" 
 "http://www.w3.org/Graphics/SVG/1.1/DTD/svg11.dtd"> 
<svg xmlns="http://www.w3.org/2000/svg" version="1.1" 
    width="6.985cm" height="4.97332cm" viewBox="0 0 27500 19580 ">
<title>SVG Picture created as MegaMiniSynthTest1--brd.svg date 2014/08/12 14:28:31 </title>
  <desc>Picture generated by PCBNEW </desc>
<g style="fill:#000000; fill-opacity:1;stroke:#000000; stroke-opacity:1;
stroke-linecap:round; stroke-linejoin:round; "
 transform="translate(0 0) scale(1 1)">
</g>
<g style="fill:#FFFF00; fill-opacity:0.0; 
stroke:#FFFF00; stroke-width:59.0551; stroke-opacity:1; 
stroke-linecap:round; stroke-linejoin:round;">
<path d="M305 29
L29 29
" />
<path d="M305 19557
L305 29
" />
<path d="M27470 19557
L305 19557
" />
<path d="M27470 187
L27470 19557
" />
<path d="M305 187
L27470 187
" />
</g>
<g style="fill:#00A0A0; fill-opacity:0.0; 
stroke:#00A0A0; stroke-width:59.0551; stroke-opacity:1; 
stroke-linecap:round; stroke-linejoin:round;">
<path d="M10089 8181
L9958 7993
" />
<path d="M9864 8181
L9864 7787
L10014 7787
L10052 7806
L10070 7824
L10089 7862
L10089 7918
L10070 7956
L10052 7974
L10014 7993
L9864 7993
" />
<path d="M10464 7806
L10426 7787
L10370 7787
L10314 7806
L10276 7843
L10258 7881
L10239 7956
L10239 8012
L10258 8087
L10276 8124
L10314 8162
L10370 8181
L10408 8181
L10464 8162
L10483 8143
L10483 8012
L10408 8012
" />
<path d="M10783 7974
L10839 7993
L10858 8012
L10876 8049
L10876 8106
L10858 8143
L10839 8162
L10801 8181
L10651 8181
L10651 7787
L10783 7787
L10820 7806
L10839 7824
L10858 7862
L10858 7899
L10839 7937
L10820 7956
L10783 7974
L10651 7974
" />
<path d="M11270 8181
L11139 7993
" />
<path d="M11045 8181
L11045 7787
L11195 7787
L11233 7806
L11251 7824
L11270 7862
L11270 7918
L11251 7956
L11233 7974
L11195 7993
L11045 7993
" />
<path d="M11495 8181
L11458 8162
L11439 8143
L11420 8106
L11420 7993
L11439 7956
L11458 7937
L11495 7918
L11551 7918
L11589 7937
L11608 7956
L11626 7993
L11626 8106
L11608 8143
L11589 8162
L11551 8181
L11495 8181
" />
<path d="M11739 7918
L11889 7918
" />
<path d="M11795 7787
L11795 8124
L11814 8162
L11851 8181
L11889 8181
" />
<path d="M12189 8181
L12189 7974
L12170 7937
L12133 7918
L12058 7918
L12020 7937
" />
<path d="M12189 8162
L12151 8181
L12058 8181
L12020 8162
L12001 8124
L12001 8087
L12020 8049
L12058 8031
L12151 8031
L12189 8012
" />
<path d="M12376 8181
L12376 7918
" />
<path d="M12376 7993
L12395 7956
L12414 7937
L12451 7918
L12489 7918
" />
<path d="M12582 7918
L12676 8181
" />
<path d="M12770 7918
L12676 8181
L12639 8274
L12620 8293
L12582 8312
" />
<path d="M12920 7974
L13051 7974
" />
<path d="M13107 8181
L12920 8181
L12920 7787
L13107 7787
" />
<path d="M13276 7918
L13276 8181
" />
<path d="M13276 7956
L13295 7937
L13332 7918
L13389 7918
L13426 7937
L13445 7974
L13445 8181
" />
<path d="M13801 8162
L13764 8181
L13689 8181
L13651 8162
L13632 8143
L13614 8106
L13614 7993
L13632 7956
L13651 7937
L13689 7918
L13764 7918
L13801 7937
" />
<path d="M14026 8181
L13989 8162
L13970 8143
L13951 8106
L13951 7993
L13970 7956
L13989 7937
L14026 7918
L14082 7918
L14120 7937
L14139 7956
L14157 7993
L14157 8106
L14139 8143
L14120 8162
L14082 8181
L14026 8181
" />
<path d="M14495 8181
L14495 7787
" />
<path d="M14495 8162
L14457 8181
L14382 8181
L14345 8162
L14326 8143
L14307 8106
L14307 7993
L14326 7956
L14345 7937
L14382 7918
L14457 7918
L14495 7937
" />
<path d="M14832 8162
L14795 8181
L14720 8181
L14682 8162
L14663 8124
L14663 7974
L14682 7937
L14720 7918
L14795 7918
L14832 7937
L14851 7974
L14851 8012
L14663 8049
" />
<path d="M15020 8181
L15020 7918
" />
<path d="M15020 7993
L15038 7956
L15057 7937
L15095 7918
L15132 7918
" />
<path d="M11711 9165
L11842 9558
L11973 9165
" />
<path d="M12086 9446
L12273 9446
" />
<path d="M12048 9558
L12179 9165
L12311 9558
" />
<path d="M12629 9558
L12442 9558
L12442 9165
" />
<path d="M12817 9165
L12817 9258
" />
<path d="M12723 9221
L12817 9258
L12911 9221
" />
<path d="M12761 9333
L12817 9258
L12873 9333
" />
<path d="M13117 9165
L13117 9258
" />
<path d="M13023 9221
L13117 9258
L13211 9221
" />
<path d="M13061 9333
L13117 9258
L13173 9333
" />
<path d="M15620 6053
L15620 12746
" />
<path d="M15620 12746
L15226 13139
" />
<path d="M15226 13139
L9320 13139
" />
<path d="M9320 13139
L8927 12746
" />
<path d="M8927 12746
L8927 6053
" />
<path d="M8927 6053
L9320 5659
" />
<path d="M9320 5659
L15226 5659
" />
<path d="M15226 5659
L15620 6053
" />
</g>
<g style="fill:#808000; fill-opacity:0.0; 
stroke:#808000; stroke-width:39.3701; stroke-opacity:1; 
stroke-linecap:round; stroke-linejoin:round;">
</g>
<g style="fill:#808000; fill-opacity:1.0; 
stroke:#808000; stroke-width:39.3701; stroke-opacity:1; 
stroke-linecap:round; stroke-linejoin:round;">
<circle cx="10895.7" cy="6643.7" r="275.591" /> 
<circle cx="11683.1" cy="6643.7" r="275.591" /> 
<circle cx="12470.5" cy="6643.7" r="275.591" /> 
<circle cx="13257.9" cy="6643.7" r="275.591" /> 
<circle cx="14045.3" cy="6643.7" r="275.591" /> 
<circle cx="11486.2" cy="12352.4" r="275.591" /> 
<circle cx="12470.5" cy="12352.4" r="275.591" /> 
<circle cx="13454.7" cy="12352.4" r="275.591" /> 
<circle cx="10305.1" cy="9399.61" r="492.126" /> 
<circle cx="14635.8" cy="9399.61" r="492.126" /> 
</g>
<g style="fill:#FFFFFF; fill-opacity:1.0; 
stroke:#FFFFFF; stroke-width:39.3701; stroke-opacity:1; 
stroke-linecap:round; stroke-linejoin:round;">
<circle cx="10895.7" cy="6643.7" r="196.85" /> 
<circle cx="11683.1" cy="6643.7" r="196.85" /> 
<circle cx="12470.5" cy="6643.7" r="196.85" /> 
<circle cx="13257.9" cy="6643.7" r="196.85" /> 
<circle cx="14045.3" cy="6643.7" r="196.85" /> 
<circle cx="11486.2" cy="12352.4" r="196.85" /> 
<circle cx="12470.5" cy="12352.4" r="196.85" /> 
<circle cx="13454.7" cy="12352.4" r="196.85" /> 
<circle cx="10305.1" cy="9399.61" r="413.386" /> 
<circle cx="14635.8" cy="9399.61" r="413.386" /> 
</g> 
</svg>
