%FSLAX34Y34*%
G04 Gerber Fmt 3.4, Leading zero omitted, Abs format*
G04 (created by PCBNEW (2014-02-26 BZR 4721)-product) date Wednesday, 20 August 2014 20:09:21*
%MOIN*%
G01*
G70*
G90*
G04 APERTURE LIST*
%ADD10C,0.005906*%
%ADD11O,0.060000X0.100000*%
%ADD12C,0.055118*%
%ADD13C,0.059055*%
%ADD14C,0.102362*%
%ADD15R,0.060000X0.060000*%
%ADD16C,0.060000*%
%ADD17C,0.118110*%
%ADD18C,0.035000*%
%ADD19C,0.015748*%
%ADD20C,0.010000*%
G04 APERTURE END LIST*
G54D10*
G54D11*
X56456Y-30614D03*
X55456Y-30614D03*
X54456Y-30614D03*
X51456Y-30614D03*
X52456Y-30614D03*
X53456Y-30614D03*
X49456Y-30614D03*
X48456Y-30614D03*
X47456Y-30614D03*
X45456Y-30614D03*
X44456Y-30614D03*
X56456Y-11614D03*
X55456Y-11614D03*
X54456Y-11614D03*
X53456Y-11614D03*
X52456Y-11614D03*
X51456Y-11614D03*
X50456Y-11614D03*
X49456Y-11614D03*
X47856Y-11614D03*
X46856Y-11614D03*
X45856Y-11614D03*
X44856Y-11614D03*
X43856Y-11614D03*
X42856Y-11614D03*
X41856Y-11614D03*
X40856Y-11614D03*
X46456Y-30614D03*
G54D12*
X47933Y-17322D03*
X47933Y-16535D03*
X47933Y-15748D03*
X47933Y-14960D03*
X47933Y-14173D03*
G54D13*
X53641Y-16732D03*
X53641Y-15748D03*
X53641Y-14763D03*
G54D14*
X50688Y-17913D03*
X50688Y-13582D03*
G54D15*
X45177Y-23637D03*
G54D16*
X45177Y-22637D03*
X45177Y-21637D03*
G54D15*
X41574Y-16614D03*
X37598Y-18110D03*
X37598Y-27244D03*
X40157Y-26377D03*
X42913Y-16535D03*
X51574Y-29015D03*
G54D17*
X32220Y-25070D03*
X32220Y-21070D03*
X36220Y-20070D03*
X37220Y-21070D03*
X36220Y-23070D03*
X37220Y-25070D03*
X36220Y-26070D03*
G54D18*
X46062Y-12598D03*
X37795Y-16732D03*
X38976Y-25984D03*
X56594Y-27854D03*
X50590Y-22539D03*
X46358Y-20767D03*
X52362Y-24311D03*
X52854Y-15846D03*
X44389Y-15944D03*
X47539Y-27263D03*
X47736Y-22637D03*
X48622Y-22637D03*
G54D19*
X38976Y-17913D02*
X37795Y-16732D01*
X38976Y-25984D02*
X38976Y-17913D01*
X47539Y-27263D02*
X47539Y-27362D01*
G54D20*
X48622Y-22637D02*
X47736Y-22637D01*
G54D10*
G36*
X58578Y-18822D02*
X58414Y-29800D01*
X57428Y-30688D01*
X57496Y-31434D01*
X57496Y-31610D01*
X57006Y-31610D01*
X57006Y-30828D01*
X57006Y-30399D01*
X56964Y-30189D01*
X56845Y-30010D01*
X56667Y-29891D01*
X56456Y-29849D01*
X56246Y-29891D01*
X56067Y-30010D01*
X55956Y-30176D01*
X55845Y-30010D01*
X55667Y-29891D01*
X55456Y-29849D01*
X55246Y-29891D01*
X55067Y-30010D01*
X54956Y-30176D01*
X54845Y-30010D01*
X54667Y-29891D01*
X54456Y-29849D01*
X54246Y-29891D01*
X54191Y-29927D01*
X54191Y-15828D01*
X54187Y-15736D01*
X54187Y-14655D01*
X54104Y-14455D01*
X53951Y-14301D01*
X53750Y-14218D01*
X53533Y-14218D01*
X53333Y-14301D01*
X53179Y-14454D01*
X53096Y-14654D01*
X53096Y-14871D01*
X53179Y-15072D01*
X53332Y-15225D01*
X53398Y-15253D01*
X53356Y-15270D01*
X53329Y-15365D01*
X53641Y-15677D01*
X53953Y-15365D01*
X53926Y-15270D01*
X53881Y-15254D01*
X53950Y-15226D01*
X54103Y-15073D01*
X54186Y-14872D01*
X54187Y-14655D01*
X54187Y-15736D01*
X54180Y-15612D01*
X54119Y-15463D01*
X54024Y-15436D01*
X53712Y-15748D01*
X54024Y-16059D01*
X54119Y-16033D01*
X54191Y-15828D01*
X54191Y-29927D01*
X54187Y-29930D01*
X54187Y-16624D01*
X54104Y-16423D01*
X53951Y-16270D01*
X53884Y-16242D01*
X53926Y-16225D01*
X53953Y-16130D01*
X53641Y-15818D01*
X53571Y-15889D01*
X53571Y-15748D01*
X53259Y-15436D01*
X53164Y-15463D01*
X53091Y-15667D01*
X53102Y-15884D01*
X53164Y-16033D01*
X53259Y-16059D01*
X53571Y-15748D01*
X53571Y-15889D01*
X53329Y-16130D01*
X53356Y-16225D01*
X53401Y-16241D01*
X53333Y-16269D01*
X53179Y-16423D01*
X53096Y-16623D01*
X53096Y-16840D01*
X53179Y-17040D01*
X53332Y-17194D01*
X53532Y-17277D01*
X53749Y-17277D01*
X53950Y-17194D01*
X54103Y-17041D01*
X54186Y-16841D01*
X54187Y-16624D01*
X54187Y-29930D01*
X54067Y-30010D01*
X53956Y-30176D01*
X53845Y-30010D01*
X53667Y-29891D01*
X53456Y-29849D01*
X53246Y-29891D01*
X53067Y-30010D01*
X52956Y-30176D01*
X52845Y-30010D01*
X52667Y-29891D01*
X52456Y-29849D01*
X52246Y-29891D01*
X52124Y-29972D01*
X52124Y-29365D01*
X52124Y-29266D01*
X52124Y-28666D01*
X52086Y-28574D01*
X52016Y-28503D01*
X51924Y-28465D01*
X51825Y-28465D01*
X51450Y-28465D01*
X51450Y-17762D01*
X51450Y-13431D01*
X51335Y-13151D01*
X51121Y-12937D01*
X50841Y-12820D01*
X50538Y-12820D01*
X50258Y-12936D01*
X50043Y-13150D01*
X49927Y-13430D01*
X49927Y-13733D01*
X50042Y-14013D01*
X50256Y-14228D01*
X50536Y-14344D01*
X50839Y-14344D01*
X51119Y-14228D01*
X51334Y-14014D01*
X51450Y-13734D01*
X51450Y-13431D01*
X51450Y-17762D01*
X51335Y-17482D01*
X51121Y-17267D01*
X50841Y-17151D01*
X50538Y-17151D01*
X50258Y-17267D01*
X50043Y-17481D01*
X49927Y-17761D01*
X49927Y-18064D01*
X50042Y-18344D01*
X50256Y-18558D01*
X50536Y-18675D01*
X50839Y-18675D01*
X51119Y-18559D01*
X51334Y-18345D01*
X51450Y-18065D01*
X51450Y-17762D01*
X51450Y-28465D01*
X51225Y-28465D01*
X51133Y-28503D01*
X51062Y-28574D01*
X51024Y-28666D01*
X51024Y-28765D01*
X51024Y-29365D01*
X51062Y-29457D01*
X51133Y-29527D01*
X51225Y-29565D01*
X51324Y-29565D01*
X51924Y-29565D01*
X52016Y-29527D01*
X52086Y-29457D01*
X52124Y-29365D01*
X52124Y-29972D01*
X52067Y-30010D01*
X51956Y-30176D01*
X51845Y-30010D01*
X51667Y-29891D01*
X51456Y-29849D01*
X51246Y-29891D01*
X51067Y-30010D01*
X50948Y-30189D01*
X50906Y-30399D01*
X50906Y-30828D01*
X50948Y-31039D01*
X51067Y-31217D01*
X51246Y-31337D01*
X51456Y-31378D01*
X51667Y-31337D01*
X51845Y-31217D01*
X51956Y-31051D01*
X52067Y-31217D01*
X52246Y-31337D01*
X52456Y-31378D01*
X52667Y-31337D01*
X52845Y-31217D01*
X52956Y-31051D01*
X53067Y-31217D01*
X53246Y-31337D01*
X53456Y-31378D01*
X53667Y-31337D01*
X53845Y-31217D01*
X53956Y-31051D01*
X54067Y-31217D01*
X54246Y-31337D01*
X54456Y-31378D01*
X54667Y-31337D01*
X54845Y-31217D01*
X54956Y-31051D01*
X55067Y-31217D01*
X55246Y-31337D01*
X55456Y-31378D01*
X55667Y-31337D01*
X55845Y-31217D01*
X55956Y-31051D01*
X56067Y-31217D01*
X56246Y-31337D01*
X56456Y-31378D01*
X56667Y-31337D01*
X56845Y-31217D01*
X56964Y-31039D01*
X57006Y-30828D01*
X57006Y-31610D01*
X50006Y-31610D01*
X50006Y-30828D01*
X50006Y-30399D01*
X49964Y-30189D01*
X49845Y-30010D01*
X49667Y-29891D01*
X49456Y-29849D01*
X49246Y-29891D01*
X49067Y-30010D01*
X49047Y-30041D01*
X49047Y-22553D01*
X48982Y-22397D01*
X48863Y-22277D01*
X48706Y-22212D01*
X48537Y-22212D01*
X48458Y-22245D01*
X48458Y-17218D01*
X48378Y-17025D01*
X48282Y-16929D01*
X48378Y-16833D01*
X48458Y-16640D01*
X48458Y-16431D01*
X48378Y-16238D01*
X48282Y-16141D01*
X48378Y-16046D01*
X48458Y-15853D01*
X48458Y-15643D01*
X48378Y-15450D01*
X48282Y-15354D01*
X48378Y-15258D01*
X48458Y-15065D01*
X48458Y-14856D01*
X48378Y-14663D01*
X48282Y-14566D01*
X48378Y-14471D01*
X48458Y-14278D01*
X48458Y-14069D01*
X48378Y-13875D01*
X48231Y-13727D01*
X48038Y-13647D01*
X47828Y-13647D01*
X47635Y-13727D01*
X47487Y-13875D01*
X47407Y-14068D01*
X47407Y-14277D01*
X47487Y-14470D01*
X47583Y-14566D01*
X47487Y-14662D01*
X47407Y-14855D01*
X47407Y-15064D01*
X47487Y-15257D01*
X47583Y-15354D01*
X47487Y-15449D01*
X47407Y-15643D01*
X47407Y-15852D01*
X47487Y-16045D01*
X47583Y-16141D01*
X47487Y-16237D01*
X47407Y-16430D01*
X47407Y-16639D01*
X47487Y-16832D01*
X47583Y-16929D01*
X47487Y-17024D01*
X47407Y-17217D01*
X47407Y-17426D01*
X47487Y-17620D01*
X47634Y-17768D01*
X47828Y-17848D01*
X48037Y-17848D01*
X48230Y-17768D01*
X48378Y-17620D01*
X48458Y-17427D01*
X48458Y-17218D01*
X48458Y-22245D01*
X48381Y-22277D01*
X48321Y-22337D01*
X48037Y-22337D01*
X47977Y-22277D01*
X47821Y-22212D01*
X47652Y-22212D01*
X47495Y-22277D01*
X47376Y-22396D01*
X47311Y-22552D01*
X47311Y-22721D01*
X47375Y-22878D01*
X47495Y-22997D01*
X47651Y-23062D01*
X47820Y-23062D01*
X47976Y-22998D01*
X48037Y-22937D01*
X48321Y-22937D01*
X48380Y-22997D01*
X48537Y-23062D01*
X48706Y-23062D01*
X48862Y-22998D01*
X48982Y-22878D01*
X49046Y-22722D01*
X49047Y-22553D01*
X49047Y-30041D01*
X48953Y-30182D01*
X48945Y-30157D01*
X48810Y-29989D01*
X48620Y-29886D01*
X48591Y-29881D01*
X48506Y-29929D01*
X48506Y-30564D01*
X48514Y-30564D01*
X48514Y-30664D01*
X48506Y-30664D01*
X48506Y-31299D01*
X48591Y-31347D01*
X48620Y-31341D01*
X48810Y-31238D01*
X48945Y-31070D01*
X48953Y-31046D01*
X49067Y-31217D01*
X49246Y-31337D01*
X49456Y-31378D01*
X49667Y-31337D01*
X49845Y-31217D01*
X49964Y-31039D01*
X50006Y-30828D01*
X50006Y-31610D01*
X48406Y-31610D01*
X48406Y-31299D01*
X48406Y-30664D01*
X48406Y-30564D01*
X48406Y-29929D01*
X48321Y-29881D01*
X48292Y-29886D01*
X48103Y-29989D01*
X47967Y-30157D01*
X47956Y-30194D01*
X47945Y-30157D01*
X47810Y-29989D01*
X47620Y-29886D01*
X47591Y-29881D01*
X47506Y-29929D01*
X47506Y-30564D01*
X47906Y-30564D01*
X48006Y-30564D01*
X48406Y-30564D01*
X48406Y-30664D01*
X48006Y-30664D01*
X47906Y-30664D01*
X47506Y-30664D01*
X47506Y-31299D01*
X47591Y-31347D01*
X47620Y-31341D01*
X47810Y-31238D01*
X47945Y-31070D01*
X47956Y-31033D01*
X47967Y-31070D01*
X48103Y-31238D01*
X48292Y-31341D01*
X48321Y-31347D01*
X48406Y-31299D01*
X48406Y-31610D01*
X47406Y-31610D01*
X47406Y-31299D01*
X47406Y-30664D01*
X47398Y-30664D01*
X47398Y-30564D01*
X47406Y-30564D01*
X47406Y-29929D01*
X47321Y-29881D01*
X47292Y-29886D01*
X47103Y-29989D01*
X46967Y-30157D01*
X46960Y-30182D01*
X46845Y-30010D01*
X46667Y-29891D01*
X46456Y-29849D01*
X46246Y-29891D01*
X46067Y-30010D01*
X45956Y-30176D01*
X45845Y-30010D01*
X45727Y-29931D01*
X45727Y-22528D01*
X45643Y-22326D01*
X45489Y-22171D01*
X45407Y-22137D01*
X45488Y-22104D01*
X45643Y-21949D01*
X45727Y-21747D01*
X45727Y-21528D01*
X45643Y-21326D01*
X45489Y-21171D01*
X45287Y-21087D01*
X45068Y-21087D01*
X44866Y-21171D01*
X44711Y-21325D01*
X44627Y-21527D01*
X44627Y-21746D01*
X44710Y-21948D01*
X44865Y-22103D01*
X44947Y-22137D01*
X44866Y-22171D01*
X44711Y-22325D01*
X44627Y-22527D01*
X44627Y-22746D01*
X44710Y-22948D01*
X44849Y-23087D01*
X44827Y-23087D01*
X44735Y-23125D01*
X44665Y-23196D01*
X44627Y-23288D01*
X44627Y-23387D01*
X44627Y-23987D01*
X44665Y-24079D01*
X44735Y-24149D01*
X44827Y-24187D01*
X44926Y-24187D01*
X45526Y-24187D01*
X45618Y-24149D01*
X45689Y-24079D01*
X45727Y-23987D01*
X45727Y-23888D01*
X45727Y-23288D01*
X45689Y-23196D01*
X45618Y-23125D01*
X45526Y-23087D01*
X45504Y-23087D01*
X45643Y-22949D01*
X45727Y-22747D01*
X45727Y-22528D01*
X45727Y-29931D01*
X45667Y-29891D01*
X45456Y-29849D01*
X45246Y-29891D01*
X45067Y-30010D01*
X44956Y-30176D01*
X44845Y-30010D01*
X44667Y-29891D01*
X44456Y-29849D01*
X44246Y-29891D01*
X44067Y-30010D01*
X43948Y-30189D01*
X43906Y-30399D01*
X43906Y-30828D01*
X43948Y-31039D01*
X44067Y-31217D01*
X44246Y-31337D01*
X44456Y-31378D01*
X44667Y-31337D01*
X44845Y-31217D01*
X44956Y-31051D01*
X45067Y-31217D01*
X45246Y-31337D01*
X45456Y-31378D01*
X45667Y-31337D01*
X45845Y-31217D01*
X45956Y-31051D01*
X46067Y-31217D01*
X46246Y-31337D01*
X46456Y-31378D01*
X46667Y-31337D01*
X46845Y-31217D01*
X46960Y-31046D01*
X46967Y-31070D01*
X47103Y-31238D01*
X47292Y-31341D01*
X47321Y-31347D01*
X47406Y-31299D01*
X47406Y-31610D01*
X43463Y-31610D01*
X43463Y-16885D01*
X43463Y-16785D01*
X43463Y-16647D01*
X43463Y-16422D01*
X43463Y-16285D01*
X43463Y-16185D01*
X43425Y-16093D01*
X43354Y-16023D01*
X43263Y-15985D01*
X43025Y-15985D01*
X42963Y-16047D01*
X42963Y-16485D01*
X43400Y-16485D01*
X43463Y-16422D01*
X43463Y-16647D01*
X43400Y-16585D01*
X42963Y-16585D01*
X42963Y-17022D01*
X43025Y-17085D01*
X43263Y-17085D01*
X43354Y-17047D01*
X43425Y-16977D01*
X43463Y-16885D01*
X43463Y-31610D01*
X42863Y-31610D01*
X42863Y-17022D01*
X42863Y-16585D01*
X42863Y-16485D01*
X42863Y-16047D01*
X42800Y-15985D01*
X42563Y-15985D01*
X42471Y-16023D01*
X42401Y-16093D01*
X42363Y-16185D01*
X42363Y-16285D01*
X42363Y-16422D01*
X42425Y-16485D01*
X42863Y-16485D01*
X42863Y-16585D01*
X42425Y-16585D01*
X42363Y-16647D01*
X42363Y-16785D01*
X42363Y-16885D01*
X42401Y-16977D01*
X42471Y-17047D01*
X42563Y-17085D01*
X42800Y-17085D01*
X42863Y-17022D01*
X42863Y-31610D01*
X42124Y-31610D01*
X42124Y-16963D01*
X42124Y-16864D01*
X42124Y-16264D01*
X42086Y-16172D01*
X42016Y-16102D01*
X41924Y-16064D01*
X41825Y-16064D01*
X41225Y-16064D01*
X41133Y-16102D01*
X41062Y-16172D01*
X41024Y-16264D01*
X41024Y-16363D01*
X41024Y-16963D01*
X41062Y-17055D01*
X41133Y-17126D01*
X41225Y-17164D01*
X41324Y-17164D01*
X41924Y-17164D01*
X42016Y-17126D01*
X42086Y-17055D01*
X42124Y-16963D01*
X42124Y-31610D01*
X40707Y-31610D01*
X40707Y-26727D01*
X40707Y-26628D01*
X40707Y-26028D01*
X40669Y-25936D01*
X40599Y-25866D01*
X40507Y-25827D01*
X40407Y-25827D01*
X39807Y-25827D01*
X39715Y-25866D01*
X39645Y-25936D01*
X39607Y-26028D01*
X39607Y-26127D01*
X39607Y-26727D01*
X39645Y-26819D01*
X39715Y-26889D01*
X39807Y-26927D01*
X39907Y-26927D01*
X40507Y-26927D01*
X40599Y-26889D01*
X40669Y-26819D01*
X40707Y-26727D01*
X40707Y-31610D01*
X39401Y-31610D01*
X39401Y-25900D01*
X39336Y-25743D01*
X39305Y-25712D01*
X39305Y-17913D01*
X39280Y-17787D01*
X39280Y-17787D01*
X39208Y-17680D01*
X38220Y-16692D01*
X38220Y-16648D01*
X38155Y-16491D01*
X38036Y-16372D01*
X37880Y-16307D01*
X37711Y-16307D01*
X37554Y-16371D01*
X37435Y-16491D01*
X37370Y-16647D01*
X37370Y-16816D01*
X37434Y-16972D01*
X37554Y-17092D01*
X37710Y-17157D01*
X37755Y-17157D01*
X38647Y-18049D01*
X38647Y-25711D01*
X38616Y-25743D01*
X38551Y-25899D01*
X38551Y-26068D01*
X38615Y-26224D01*
X38735Y-26344D01*
X38891Y-26409D01*
X39060Y-26409D01*
X39216Y-26344D01*
X39336Y-26225D01*
X39401Y-26069D01*
X39401Y-25900D01*
X39401Y-31610D01*
X38148Y-31610D01*
X38148Y-27593D01*
X38148Y-27494D01*
X38148Y-26894D01*
X38148Y-18459D01*
X38148Y-18360D01*
X38148Y-17760D01*
X38110Y-17668D01*
X38040Y-17598D01*
X37948Y-17560D01*
X37848Y-17560D01*
X37248Y-17560D01*
X37156Y-17598D01*
X37086Y-17668D01*
X37048Y-17760D01*
X37048Y-17859D01*
X37048Y-18459D01*
X37086Y-18551D01*
X37156Y-18622D01*
X37248Y-18660D01*
X37348Y-18660D01*
X37948Y-18660D01*
X38040Y-18622D01*
X38110Y-18551D01*
X38148Y-18459D01*
X38148Y-26894D01*
X38110Y-26802D01*
X38061Y-26753D01*
X38061Y-24904D01*
X38061Y-20904D01*
X37933Y-20595D01*
X37697Y-20358D01*
X37388Y-20230D01*
X37060Y-20230D01*
X37061Y-19904D01*
X36933Y-19595D01*
X36697Y-19358D01*
X36388Y-19230D01*
X36054Y-19230D01*
X35744Y-19357D01*
X35508Y-19594D01*
X35380Y-19902D01*
X35379Y-20237D01*
X35507Y-20546D01*
X35743Y-20783D01*
X36052Y-20911D01*
X36380Y-20911D01*
X36379Y-21237D01*
X36507Y-21546D01*
X36743Y-21783D01*
X37052Y-21911D01*
X37386Y-21911D01*
X37695Y-21783D01*
X37932Y-21547D01*
X38060Y-21238D01*
X38061Y-20904D01*
X38061Y-24904D01*
X37933Y-24595D01*
X37697Y-24358D01*
X37388Y-24230D01*
X37061Y-24230D01*
X37061Y-22904D01*
X36933Y-22595D01*
X36697Y-22358D01*
X36388Y-22230D01*
X36054Y-22230D01*
X35744Y-22357D01*
X35508Y-22594D01*
X35380Y-22902D01*
X35379Y-23237D01*
X35507Y-23546D01*
X35743Y-23783D01*
X36052Y-23911D01*
X36386Y-23911D01*
X36695Y-23783D01*
X36932Y-23547D01*
X37060Y-23238D01*
X37061Y-22904D01*
X37061Y-24230D01*
X37054Y-24230D01*
X36744Y-24357D01*
X36508Y-24594D01*
X36380Y-24902D01*
X36379Y-25230D01*
X36054Y-25230D01*
X35744Y-25357D01*
X35508Y-25594D01*
X35380Y-25902D01*
X35379Y-26237D01*
X35507Y-26546D01*
X35743Y-26783D01*
X36052Y-26911D01*
X36386Y-26911D01*
X36695Y-26783D01*
X36932Y-26547D01*
X37060Y-26238D01*
X37061Y-25911D01*
X37386Y-25911D01*
X37695Y-25783D01*
X37932Y-25547D01*
X38060Y-25238D01*
X38061Y-24904D01*
X38061Y-26753D01*
X38040Y-26732D01*
X37948Y-26694D01*
X37848Y-26694D01*
X37248Y-26694D01*
X37156Y-26732D01*
X37086Y-26802D01*
X37048Y-26894D01*
X37048Y-26993D01*
X37048Y-27593D01*
X37086Y-27685D01*
X37156Y-27756D01*
X37248Y-27794D01*
X37348Y-27794D01*
X37948Y-27794D01*
X38040Y-27756D01*
X38110Y-27685D01*
X38148Y-27593D01*
X38148Y-31610D01*
X31447Y-31610D01*
X31447Y-25401D01*
X31507Y-25546D01*
X31743Y-25783D01*
X32052Y-25911D01*
X32386Y-25911D01*
X32695Y-25783D01*
X32932Y-25547D01*
X33060Y-25238D01*
X33061Y-24904D01*
X32933Y-24595D01*
X32697Y-24358D01*
X32388Y-24230D01*
X32054Y-24230D01*
X31744Y-24357D01*
X31508Y-24594D01*
X31447Y-24740D01*
X31447Y-21401D01*
X31507Y-21546D01*
X31743Y-21783D01*
X32052Y-21911D01*
X32386Y-21911D01*
X32695Y-21783D01*
X32932Y-21547D01*
X33060Y-21238D01*
X33061Y-20904D01*
X32933Y-20595D01*
X32697Y-20358D01*
X32388Y-20230D01*
X32054Y-20230D01*
X31744Y-20357D01*
X31508Y-20594D01*
X31447Y-20740D01*
X31447Y-11220D01*
X31447Y-10876D01*
X31495Y-10876D01*
X40616Y-10911D01*
X40467Y-11010D01*
X40348Y-11189D01*
X40306Y-11399D01*
X40306Y-11828D01*
X40348Y-12039D01*
X40467Y-12217D01*
X40646Y-12337D01*
X40856Y-12378D01*
X41067Y-12337D01*
X41245Y-12217D01*
X41356Y-12051D01*
X41467Y-12217D01*
X41646Y-12337D01*
X41856Y-12378D01*
X42067Y-12337D01*
X42245Y-12217D01*
X42356Y-12051D01*
X42467Y-12217D01*
X42646Y-12337D01*
X42856Y-12378D01*
X43067Y-12337D01*
X43245Y-12217D01*
X43356Y-12051D01*
X43467Y-12217D01*
X43646Y-12337D01*
X43856Y-12378D01*
X44067Y-12337D01*
X44245Y-12217D01*
X44356Y-12051D01*
X44467Y-12217D01*
X44646Y-12337D01*
X44856Y-12378D01*
X45067Y-12337D01*
X45245Y-12217D01*
X45356Y-12051D01*
X45467Y-12217D01*
X45646Y-12337D01*
X45710Y-12349D01*
X45702Y-12357D01*
X45638Y-12513D01*
X45637Y-12682D01*
X45702Y-12838D01*
X45821Y-12958D01*
X45978Y-13023D01*
X46147Y-13023D01*
X46303Y-12958D01*
X46423Y-12839D01*
X46487Y-12683D01*
X46488Y-12514D01*
X46423Y-12357D01*
X46304Y-12238D01*
X46247Y-12214D01*
X46356Y-12051D01*
X46467Y-12217D01*
X46646Y-12337D01*
X46856Y-12378D01*
X47067Y-12337D01*
X47245Y-12217D01*
X47356Y-12051D01*
X47467Y-12217D01*
X47646Y-12337D01*
X47856Y-12378D01*
X48067Y-12337D01*
X48245Y-12217D01*
X48364Y-12039D01*
X48406Y-11828D01*
X48406Y-11399D01*
X48364Y-11189D01*
X48245Y-11010D01*
X48139Y-10939D01*
X49168Y-10943D01*
X49067Y-11010D01*
X48948Y-11189D01*
X48906Y-11399D01*
X48906Y-11828D01*
X48948Y-12039D01*
X49067Y-12217D01*
X49246Y-12337D01*
X49456Y-12378D01*
X49667Y-12337D01*
X49845Y-12217D01*
X49956Y-12051D01*
X50067Y-12217D01*
X50246Y-12337D01*
X50456Y-12378D01*
X50667Y-12337D01*
X50845Y-12217D01*
X50956Y-12051D01*
X51067Y-12217D01*
X51246Y-12337D01*
X51456Y-12378D01*
X51667Y-12337D01*
X51845Y-12217D01*
X51956Y-12051D01*
X52067Y-12217D01*
X52246Y-12337D01*
X52456Y-12378D01*
X52667Y-12337D01*
X52845Y-12217D01*
X52956Y-12051D01*
X53067Y-12217D01*
X53246Y-12337D01*
X53456Y-12378D01*
X53667Y-12337D01*
X53845Y-12217D01*
X53956Y-12051D01*
X54067Y-12217D01*
X54246Y-12337D01*
X54456Y-12378D01*
X54667Y-12337D01*
X54845Y-12217D01*
X54956Y-12051D01*
X55067Y-12217D01*
X55246Y-12337D01*
X55456Y-12378D01*
X55667Y-12337D01*
X55845Y-12217D01*
X55956Y-12051D01*
X56067Y-12217D01*
X56246Y-12337D01*
X56456Y-12378D01*
X56667Y-12337D01*
X56845Y-12217D01*
X56964Y-12039D01*
X57006Y-11828D01*
X57006Y-11399D01*
X56964Y-11189D01*
X56845Y-11010D01*
X56788Y-10972D01*
X57232Y-10973D01*
X57397Y-11139D01*
X57397Y-15452D01*
X57418Y-15559D01*
X57479Y-15650D01*
X58578Y-16749D01*
X58578Y-18822D01*
X58578Y-18822D01*
G37*
G54D20*
X58578Y-18822D02*
X58414Y-29800D01*
X57428Y-30688D01*
X57496Y-31434D01*
X57496Y-31610D01*
X57006Y-31610D01*
X57006Y-30828D01*
X57006Y-30399D01*
X56964Y-30189D01*
X56845Y-30010D01*
X56667Y-29891D01*
X56456Y-29849D01*
X56246Y-29891D01*
X56067Y-30010D01*
X55956Y-30176D01*
X55845Y-30010D01*
X55667Y-29891D01*
X55456Y-29849D01*
X55246Y-29891D01*
X55067Y-30010D01*
X54956Y-30176D01*
X54845Y-30010D01*
X54667Y-29891D01*
X54456Y-29849D01*
X54246Y-29891D01*
X54191Y-29927D01*
X54191Y-15828D01*
X54187Y-15736D01*
X54187Y-14655D01*
X54104Y-14455D01*
X53951Y-14301D01*
X53750Y-14218D01*
X53533Y-14218D01*
X53333Y-14301D01*
X53179Y-14454D01*
X53096Y-14654D01*
X53096Y-14871D01*
X53179Y-15072D01*
X53332Y-15225D01*
X53398Y-15253D01*
X53356Y-15270D01*
X53329Y-15365D01*
X53641Y-15677D01*
X53953Y-15365D01*
X53926Y-15270D01*
X53881Y-15254D01*
X53950Y-15226D01*
X54103Y-15073D01*
X54186Y-14872D01*
X54187Y-14655D01*
X54187Y-15736D01*
X54180Y-15612D01*
X54119Y-15463D01*
X54024Y-15436D01*
X53712Y-15748D01*
X54024Y-16059D01*
X54119Y-16033D01*
X54191Y-15828D01*
X54191Y-29927D01*
X54187Y-29930D01*
X54187Y-16624D01*
X54104Y-16423D01*
X53951Y-16270D01*
X53884Y-16242D01*
X53926Y-16225D01*
X53953Y-16130D01*
X53641Y-15818D01*
X53571Y-15889D01*
X53571Y-15748D01*
X53259Y-15436D01*
X53164Y-15463D01*
X53091Y-15667D01*
X53102Y-15884D01*
X53164Y-16033D01*
X53259Y-16059D01*
X53571Y-15748D01*
X53571Y-15889D01*
X53329Y-16130D01*
X53356Y-16225D01*
X53401Y-16241D01*
X53333Y-16269D01*
X53179Y-16423D01*
X53096Y-16623D01*
X53096Y-16840D01*
X53179Y-17040D01*
X53332Y-17194D01*
X53532Y-17277D01*
X53749Y-17277D01*
X53950Y-17194D01*
X54103Y-17041D01*
X54186Y-16841D01*
X54187Y-16624D01*
X54187Y-29930D01*
X54067Y-30010D01*
X53956Y-30176D01*
X53845Y-30010D01*
X53667Y-29891D01*
X53456Y-29849D01*
X53246Y-29891D01*
X53067Y-30010D01*
X52956Y-30176D01*
X52845Y-30010D01*
X52667Y-29891D01*
X52456Y-29849D01*
X52246Y-29891D01*
X52124Y-29972D01*
X52124Y-29365D01*
X52124Y-29266D01*
X52124Y-28666D01*
X52086Y-28574D01*
X52016Y-28503D01*
X51924Y-28465D01*
X51825Y-28465D01*
X51450Y-28465D01*
X51450Y-17762D01*
X51450Y-13431D01*
X51335Y-13151D01*
X51121Y-12937D01*
X50841Y-12820D01*
X50538Y-12820D01*
X50258Y-12936D01*
X50043Y-13150D01*
X49927Y-13430D01*
X49927Y-13733D01*
X50042Y-14013D01*
X50256Y-14228D01*
X50536Y-14344D01*
X50839Y-14344D01*
X51119Y-14228D01*
X51334Y-14014D01*
X51450Y-13734D01*
X51450Y-13431D01*
X51450Y-17762D01*
X51335Y-17482D01*
X51121Y-17267D01*
X50841Y-17151D01*
X50538Y-17151D01*
X50258Y-17267D01*
X50043Y-17481D01*
X49927Y-17761D01*
X49927Y-18064D01*
X50042Y-18344D01*
X50256Y-18558D01*
X50536Y-18675D01*
X50839Y-18675D01*
X51119Y-18559D01*
X51334Y-18345D01*
X51450Y-18065D01*
X51450Y-17762D01*
X51450Y-28465D01*
X51225Y-28465D01*
X51133Y-28503D01*
X51062Y-28574D01*
X51024Y-28666D01*
X51024Y-28765D01*
X51024Y-29365D01*
X51062Y-29457D01*
X51133Y-29527D01*
X51225Y-29565D01*
X51324Y-29565D01*
X51924Y-29565D01*
X52016Y-29527D01*
X52086Y-29457D01*
X52124Y-29365D01*
X52124Y-29972D01*
X52067Y-30010D01*
X51956Y-30176D01*
X51845Y-30010D01*
X51667Y-29891D01*
X51456Y-29849D01*
X51246Y-29891D01*
X51067Y-30010D01*
X50948Y-30189D01*
X50906Y-30399D01*
X50906Y-30828D01*
X50948Y-31039D01*
X51067Y-31217D01*
X51246Y-31337D01*
X51456Y-31378D01*
X51667Y-31337D01*
X51845Y-31217D01*
X51956Y-31051D01*
X52067Y-31217D01*
X52246Y-31337D01*
X52456Y-31378D01*
X52667Y-31337D01*
X52845Y-31217D01*
X52956Y-31051D01*
X53067Y-31217D01*
X53246Y-31337D01*
X53456Y-31378D01*
X53667Y-31337D01*
X53845Y-31217D01*
X53956Y-31051D01*
X54067Y-31217D01*
X54246Y-31337D01*
X54456Y-31378D01*
X54667Y-31337D01*
X54845Y-31217D01*
X54956Y-31051D01*
X55067Y-31217D01*
X55246Y-31337D01*
X55456Y-31378D01*
X55667Y-31337D01*
X55845Y-31217D01*
X55956Y-31051D01*
X56067Y-31217D01*
X56246Y-31337D01*
X56456Y-31378D01*
X56667Y-31337D01*
X56845Y-31217D01*
X56964Y-31039D01*
X57006Y-30828D01*
X57006Y-31610D01*
X50006Y-31610D01*
X50006Y-30828D01*
X50006Y-30399D01*
X49964Y-30189D01*
X49845Y-30010D01*
X49667Y-29891D01*
X49456Y-29849D01*
X49246Y-29891D01*
X49067Y-30010D01*
X49047Y-30041D01*
X49047Y-22553D01*
X48982Y-22397D01*
X48863Y-22277D01*
X48706Y-22212D01*
X48537Y-22212D01*
X48458Y-22245D01*
X48458Y-17218D01*
X48378Y-17025D01*
X48282Y-16929D01*
X48378Y-16833D01*
X48458Y-16640D01*
X48458Y-16431D01*
X48378Y-16238D01*
X48282Y-16141D01*
X48378Y-16046D01*
X48458Y-15853D01*
X48458Y-15643D01*
X48378Y-15450D01*
X48282Y-15354D01*
X48378Y-15258D01*
X48458Y-15065D01*
X48458Y-14856D01*
X48378Y-14663D01*
X48282Y-14566D01*
X48378Y-14471D01*
X48458Y-14278D01*
X48458Y-14069D01*
X48378Y-13875D01*
X48231Y-13727D01*
X48038Y-13647D01*
X47828Y-13647D01*
X47635Y-13727D01*
X47487Y-13875D01*
X47407Y-14068D01*
X47407Y-14277D01*
X47487Y-14470D01*
X47583Y-14566D01*
X47487Y-14662D01*
X47407Y-14855D01*
X47407Y-15064D01*
X47487Y-15257D01*
X47583Y-15354D01*
X47487Y-15449D01*
X47407Y-15643D01*
X47407Y-15852D01*
X47487Y-16045D01*
X47583Y-16141D01*
X47487Y-16237D01*
X47407Y-16430D01*
X47407Y-16639D01*
X47487Y-16832D01*
X47583Y-16929D01*
X47487Y-17024D01*
X47407Y-17217D01*
X47407Y-17426D01*
X47487Y-17620D01*
X47634Y-17768D01*
X47828Y-17848D01*
X48037Y-17848D01*
X48230Y-17768D01*
X48378Y-17620D01*
X48458Y-17427D01*
X48458Y-17218D01*
X48458Y-22245D01*
X48381Y-22277D01*
X48321Y-22337D01*
X48037Y-22337D01*
X47977Y-22277D01*
X47821Y-22212D01*
X47652Y-22212D01*
X47495Y-22277D01*
X47376Y-22396D01*
X47311Y-22552D01*
X47311Y-22721D01*
X47375Y-22878D01*
X47495Y-22997D01*
X47651Y-23062D01*
X47820Y-23062D01*
X47976Y-22998D01*
X48037Y-22937D01*
X48321Y-22937D01*
X48380Y-22997D01*
X48537Y-23062D01*
X48706Y-23062D01*
X48862Y-22998D01*
X48982Y-22878D01*
X49046Y-22722D01*
X49047Y-22553D01*
X49047Y-30041D01*
X48953Y-30182D01*
X48945Y-30157D01*
X48810Y-29989D01*
X48620Y-29886D01*
X48591Y-29881D01*
X48506Y-29929D01*
X48506Y-30564D01*
X48514Y-30564D01*
X48514Y-30664D01*
X48506Y-30664D01*
X48506Y-31299D01*
X48591Y-31347D01*
X48620Y-31341D01*
X48810Y-31238D01*
X48945Y-31070D01*
X48953Y-31046D01*
X49067Y-31217D01*
X49246Y-31337D01*
X49456Y-31378D01*
X49667Y-31337D01*
X49845Y-31217D01*
X49964Y-31039D01*
X50006Y-30828D01*
X50006Y-31610D01*
X48406Y-31610D01*
X48406Y-31299D01*
X48406Y-30664D01*
X48406Y-30564D01*
X48406Y-29929D01*
X48321Y-29881D01*
X48292Y-29886D01*
X48103Y-29989D01*
X47967Y-30157D01*
X47956Y-30194D01*
X47945Y-30157D01*
X47810Y-29989D01*
X47620Y-29886D01*
X47591Y-29881D01*
X47506Y-29929D01*
X47506Y-30564D01*
X47906Y-30564D01*
X48006Y-30564D01*
X48406Y-30564D01*
X48406Y-30664D01*
X48006Y-30664D01*
X47906Y-30664D01*
X47506Y-30664D01*
X47506Y-31299D01*
X47591Y-31347D01*
X47620Y-31341D01*
X47810Y-31238D01*
X47945Y-31070D01*
X47956Y-31033D01*
X47967Y-31070D01*
X48103Y-31238D01*
X48292Y-31341D01*
X48321Y-31347D01*
X48406Y-31299D01*
X48406Y-31610D01*
X47406Y-31610D01*
X47406Y-31299D01*
X47406Y-30664D01*
X47398Y-30664D01*
X47398Y-30564D01*
X47406Y-30564D01*
X47406Y-29929D01*
X47321Y-29881D01*
X47292Y-29886D01*
X47103Y-29989D01*
X46967Y-30157D01*
X46960Y-30182D01*
X46845Y-30010D01*
X46667Y-29891D01*
X46456Y-29849D01*
X46246Y-29891D01*
X46067Y-30010D01*
X45956Y-30176D01*
X45845Y-30010D01*
X45727Y-29931D01*
X45727Y-22528D01*
X45643Y-22326D01*
X45489Y-22171D01*
X45407Y-22137D01*
X45488Y-22104D01*
X45643Y-21949D01*
X45727Y-21747D01*
X45727Y-21528D01*
X45643Y-21326D01*
X45489Y-21171D01*
X45287Y-21087D01*
X45068Y-21087D01*
X44866Y-21171D01*
X44711Y-21325D01*
X44627Y-21527D01*
X44627Y-21746D01*
X44710Y-21948D01*
X44865Y-22103D01*
X44947Y-22137D01*
X44866Y-22171D01*
X44711Y-22325D01*
X44627Y-22527D01*
X44627Y-22746D01*
X44710Y-22948D01*
X44849Y-23087D01*
X44827Y-23087D01*
X44735Y-23125D01*
X44665Y-23196D01*
X44627Y-23288D01*
X44627Y-23387D01*
X44627Y-23987D01*
X44665Y-24079D01*
X44735Y-24149D01*
X44827Y-24187D01*
X44926Y-24187D01*
X45526Y-24187D01*
X45618Y-24149D01*
X45689Y-24079D01*
X45727Y-23987D01*
X45727Y-23888D01*
X45727Y-23288D01*
X45689Y-23196D01*
X45618Y-23125D01*
X45526Y-23087D01*
X45504Y-23087D01*
X45643Y-22949D01*
X45727Y-22747D01*
X45727Y-22528D01*
X45727Y-29931D01*
X45667Y-29891D01*
X45456Y-29849D01*
X45246Y-29891D01*
X45067Y-30010D01*
X44956Y-30176D01*
X44845Y-30010D01*
X44667Y-29891D01*
X44456Y-29849D01*
X44246Y-29891D01*
X44067Y-30010D01*
X43948Y-30189D01*
X43906Y-30399D01*
X43906Y-30828D01*
X43948Y-31039D01*
X44067Y-31217D01*
X44246Y-31337D01*
X44456Y-31378D01*
X44667Y-31337D01*
X44845Y-31217D01*
X44956Y-31051D01*
X45067Y-31217D01*
X45246Y-31337D01*
X45456Y-31378D01*
X45667Y-31337D01*
X45845Y-31217D01*
X45956Y-31051D01*
X46067Y-31217D01*
X46246Y-31337D01*
X46456Y-31378D01*
X46667Y-31337D01*
X46845Y-31217D01*
X46960Y-31046D01*
X46967Y-31070D01*
X47103Y-31238D01*
X47292Y-31341D01*
X47321Y-31347D01*
X47406Y-31299D01*
X47406Y-31610D01*
X43463Y-31610D01*
X43463Y-16885D01*
X43463Y-16785D01*
X43463Y-16647D01*
X43463Y-16422D01*
X43463Y-16285D01*
X43463Y-16185D01*
X43425Y-16093D01*
X43354Y-16023D01*
X43263Y-15985D01*
X43025Y-15985D01*
X42963Y-16047D01*
X42963Y-16485D01*
X43400Y-16485D01*
X43463Y-16422D01*
X43463Y-16647D01*
X43400Y-16585D01*
X42963Y-16585D01*
X42963Y-17022D01*
X43025Y-17085D01*
X43263Y-17085D01*
X43354Y-17047D01*
X43425Y-16977D01*
X43463Y-16885D01*
X43463Y-31610D01*
X42863Y-31610D01*
X42863Y-17022D01*
X42863Y-16585D01*
X42863Y-16485D01*
X42863Y-16047D01*
X42800Y-15985D01*
X42563Y-15985D01*
X42471Y-16023D01*
X42401Y-16093D01*
X42363Y-16185D01*
X42363Y-16285D01*
X42363Y-16422D01*
X42425Y-16485D01*
X42863Y-16485D01*
X42863Y-16585D01*
X42425Y-16585D01*
X42363Y-16647D01*
X42363Y-16785D01*
X42363Y-16885D01*
X42401Y-16977D01*
X42471Y-17047D01*
X42563Y-17085D01*
X42800Y-17085D01*
X42863Y-17022D01*
X42863Y-31610D01*
X42124Y-31610D01*
X42124Y-16963D01*
X42124Y-16864D01*
X42124Y-16264D01*
X42086Y-16172D01*
X42016Y-16102D01*
X41924Y-16064D01*
X41825Y-16064D01*
X41225Y-16064D01*
X41133Y-16102D01*
X41062Y-16172D01*
X41024Y-16264D01*
X41024Y-16363D01*
X41024Y-16963D01*
X41062Y-17055D01*
X41133Y-17126D01*
X41225Y-17164D01*
X41324Y-17164D01*
X41924Y-17164D01*
X42016Y-17126D01*
X42086Y-17055D01*
X42124Y-16963D01*
X42124Y-31610D01*
X40707Y-31610D01*
X40707Y-26727D01*
X40707Y-26628D01*
X40707Y-26028D01*
X40669Y-25936D01*
X40599Y-25866D01*
X40507Y-25827D01*
X40407Y-25827D01*
X39807Y-25827D01*
X39715Y-25866D01*
X39645Y-25936D01*
X39607Y-26028D01*
X39607Y-26127D01*
X39607Y-26727D01*
X39645Y-26819D01*
X39715Y-26889D01*
X39807Y-26927D01*
X39907Y-26927D01*
X40507Y-26927D01*
X40599Y-26889D01*
X40669Y-26819D01*
X40707Y-26727D01*
X40707Y-31610D01*
X39401Y-31610D01*
X39401Y-25900D01*
X39336Y-25743D01*
X39305Y-25712D01*
X39305Y-17913D01*
X39280Y-17787D01*
X39280Y-17787D01*
X39208Y-17680D01*
X38220Y-16692D01*
X38220Y-16648D01*
X38155Y-16491D01*
X38036Y-16372D01*
X37880Y-16307D01*
X37711Y-16307D01*
X37554Y-16371D01*
X37435Y-16491D01*
X37370Y-16647D01*
X37370Y-16816D01*
X37434Y-16972D01*
X37554Y-17092D01*
X37710Y-17157D01*
X37755Y-17157D01*
X38647Y-18049D01*
X38647Y-25711D01*
X38616Y-25743D01*
X38551Y-25899D01*
X38551Y-26068D01*
X38615Y-26224D01*
X38735Y-26344D01*
X38891Y-26409D01*
X39060Y-26409D01*
X39216Y-26344D01*
X39336Y-26225D01*
X39401Y-26069D01*
X39401Y-25900D01*
X39401Y-31610D01*
X38148Y-31610D01*
X38148Y-27593D01*
X38148Y-27494D01*
X38148Y-26894D01*
X38148Y-18459D01*
X38148Y-18360D01*
X38148Y-17760D01*
X38110Y-17668D01*
X38040Y-17598D01*
X37948Y-17560D01*
X37848Y-17560D01*
X37248Y-17560D01*
X37156Y-17598D01*
X37086Y-17668D01*
X37048Y-17760D01*
X37048Y-17859D01*
X37048Y-18459D01*
X37086Y-18551D01*
X37156Y-18622D01*
X37248Y-18660D01*
X37348Y-18660D01*
X37948Y-18660D01*
X38040Y-18622D01*
X38110Y-18551D01*
X38148Y-18459D01*
X38148Y-26894D01*
X38110Y-26802D01*
X38061Y-26753D01*
X38061Y-24904D01*
X38061Y-20904D01*
X37933Y-20595D01*
X37697Y-20358D01*
X37388Y-20230D01*
X37060Y-20230D01*
X37061Y-19904D01*
X36933Y-19595D01*
X36697Y-19358D01*
X36388Y-19230D01*
X36054Y-19230D01*
X35744Y-19357D01*
X35508Y-19594D01*
X35380Y-19902D01*
X35379Y-20237D01*
X35507Y-20546D01*
X35743Y-20783D01*
X36052Y-20911D01*
X36380Y-20911D01*
X36379Y-21237D01*
X36507Y-21546D01*
X36743Y-21783D01*
X37052Y-21911D01*
X37386Y-21911D01*
X37695Y-21783D01*
X37932Y-21547D01*
X38060Y-21238D01*
X38061Y-20904D01*
X38061Y-24904D01*
X37933Y-24595D01*
X37697Y-24358D01*
X37388Y-24230D01*
X37061Y-24230D01*
X37061Y-22904D01*
X36933Y-22595D01*
X36697Y-22358D01*
X36388Y-22230D01*
X36054Y-22230D01*
X35744Y-22357D01*
X35508Y-22594D01*
X35380Y-22902D01*
X35379Y-23237D01*
X35507Y-23546D01*
X35743Y-23783D01*
X36052Y-23911D01*
X36386Y-23911D01*
X36695Y-23783D01*
X36932Y-23547D01*
X37060Y-23238D01*
X37061Y-22904D01*
X37061Y-24230D01*
X37054Y-24230D01*
X36744Y-24357D01*
X36508Y-24594D01*
X36380Y-24902D01*
X36379Y-25230D01*
X36054Y-25230D01*
X35744Y-25357D01*
X35508Y-25594D01*
X35380Y-25902D01*
X35379Y-26237D01*
X35507Y-26546D01*
X35743Y-26783D01*
X36052Y-26911D01*
X36386Y-26911D01*
X36695Y-26783D01*
X36932Y-26547D01*
X37060Y-26238D01*
X37061Y-25911D01*
X37386Y-25911D01*
X37695Y-25783D01*
X37932Y-25547D01*
X38060Y-25238D01*
X38061Y-24904D01*
X38061Y-26753D01*
X38040Y-26732D01*
X37948Y-26694D01*
X37848Y-26694D01*
X37248Y-26694D01*
X37156Y-26732D01*
X37086Y-26802D01*
X37048Y-26894D01*
X37048Y-26993D01*
X37048Y-27593D01*
X37086Y-27685D01*
X37156Y-27756D01*
X37248Y-27794D01*
X37348Y-27794D01*
X37948Y-27794D01*
X38040Y-27756D01*
X38110Y-27685D01*
X38148Y-27593D01*
X38148Y-31610D01*
X31447Y-31610D01*
X31447Y-25401D01*
X31507Y-25546D01*
X31743Y-25783D01*
X32052Y-25911D01*
X32386Y-25911D01*
X32695Y-25783D01*
X32932Y-25547D01*
X33060Y-25238D01*
X33061Y-24904D01*
X32933Y-24595D01*
X32697Y-24358D01*
X32388Y-24230D01*
X32054Y-24230D01*
X31744Y-24357D01*
X31508Y-24594D01*
X31447Y-24740D01*
X31447Y-21401D01*
X31507Y-21546D01*
X31743Y-21783D01*
X32052Y-21911D01*
X32386Y-21911D01*
X32695Y-21783D01*
X32932Y-21547D01*
X33060Y-21238D01*
X33061Y-20904D01*
X32933Y-20595D01*
X32697Y-20358D01*
X32388Y-20230D01*
X32054Y-20230D01*
X31744Y-20357D01*
X31508Y-20594D01*
X31447Y-20740D01*
X31447Y-11220D01*
X31447Y-10876D01*
X31495Y-10876D01*
X40616Y-10911D01*
X40467Y-11010D01*
X40348Y-11189D01*
X40306Y-11399D01*
X40306Y-11828D01*
X40348Y-12039D01*
X40467Y-12217D01*
X40646Y-12337D01*
X40856Y-12378D01*
X41067Y-12337D01*
X41245Y-12217D01*
X41356Y-12051D01*
X41467Y-12217D01*
X41646Y-12337D01*
X41856Y-12378D01*
X42067Y-12337D01*
X42245Y-12217D01*
X42356Y-12051D01*
X42467Y-12217D01*
X42646Y-12337D01*
X42856Y-12378D01*
X43067Y-12337D01*
X43245Y-12217D01*
X43356Y-12051D01*
X43467Y-12217D01*
X43646Y-12337D01*
X43856Y-12378D01*
X44067Y-12337D01*
X44245Y-12217D01*
X44356Y-12051D01*
X44467Y-12217D01*
X44646Y-12337D01*
X44856Y-12378D01*
X45067Y-12337D01*
X45245Y-12217D01*
X45356Y-12051D01*
X45467Y-12217D01*
X45646Y-12337D01*
X45710Y-12349D01*
X45702Y-12357D01*
X45638Y-12513D01*
X45637Y-12682D01*
X45702Y-12838D01*
X45821Y-12958D01*
X45978Y-13023D01*
X46147Y-13023D01*
X46303Y-12958D01*
X46423Y-12839D01*
X46487Y-12683D01*
X46488Y-12514D01*
X46423Y-12357D01*
X46304Y-12238D01*
X46247Y-12214D01*
X46356Y-12051D01*
X46467Y-12217D01*
X46646Y-12337D01*
X46856Y-12378D01*
X47067Y-12337D01*
X47245Y-12217D01*
X47356Y-12051D01*
X47467Y-12217D01*
X47646Y-12337D01*
X47856Y-12378D01*
X48067Y-12337D01*
X48245Y-12217D01*
X48364Y-12039D01*
X48406Y-11828D01*
X48406Y-11399D01*
X48364Y-11189D01*
X48245Y-11010D01*
X48139Y-10939D01*
X49168Y-10943D01*
X49067Y-11010D01*
X48948Y-11189D01*
X48906Y-11399D01*
X48906Y-11828D01*
X48948Y-12039D01*
X49067Y-12217D01*
X49246Y-12337D01*
X49456Y-12378D01*
X49667Y-12337D01*
X49845Y-12217D01*
X49956Y-12051D01*
X50067Y-12217D01*
X50246Y-12337D01*
X50456Y-12378D01*
X50667Y-12337D01*
X50845Y-12217D01*
X50956Y-12051D01*
X51067Y-12217D01*
X51246Y-12337D01*
X51456Y-12378D01*
X51667Y-12337D01*
X51845Y-12217D01*
X51956Y-12051D01*
X52067Y-12217D01*
X52246Y-12337D01*
X52456Y-12378D01*
X52667Y-12337D01*
X52845Y-12217D01*
X52956Y-12051D01*
X53067Y-12217D01*
X53246Y-12337D01*
X53456Y-12378D01*
X53667Y-12337D01*
X53845Y-12217D01*
X53956Y-12051D01*
X54067Y-12217D01*
X54246Y-12337D01*
X54456Y-12378D01*
X54667Y-12337D01*
X54845Y-12217D01*
X54956Y-12051D01*
X55067Y-12217D01*
X55246Y-12337D01*
X55456Y-12378D01*
X55667Y-12337D01*
X55845Y-12217D01*
X55956Y-12051D01*
X56067Y-12217D01*
X56246Y-12337D01*
X56456Y-12378D01*
X56667Y-12337D01*
X56845Y-12217D01*
X56964Y-12039D01*
X57006Y-11828D01*
X57006Y-11399D01*
X56964Y-11189D01*
X56845Y-11010D01*
X56788Y-10972D01*
X57232Y-10973D01*
X57397Y-11139D01*
X57397Y-15452D01*
X57418Y-15559D01*
X57479Y-15650D01*
X58578Y-16749D01*
X58578Y-18822D01*
M02*
