%FSLAX34Y34*%
G04 Gerber Fmt 3.4, Leading zero omitted, Abs format*
G04 (created by PCBNEW (2014-02-26 BZR 4721)-product) date Wednesday, 20 August 2014 20:09:21*
%MOIN*%
G01*
G70*
G90*
G04 APERTURE LIST*
%ADD10C,0.005906*%
%ADD11O,0.060000X0.100000*%
%ADD12C,0.055118*%
%ADD13C,0.059055*%
%ADD14C,0.102362*%
%ADD15R,0.060000X0.060000*%
%ADD16C,0.060000*%
%ADD17R,0.118110X0.062992*%
%ADD18R,0.244094X0.228346*%
%ADD19C,0.118110*%
%ADD20R,0.141700X0.063000*%
%ADD21R,0.086600X0.063000*%
%ADD22R,0.059000X0.051200*%
%ADD23R,0.051200X0.059000*%
%ADD24R,0.039000X0.012000*%
%ADD25R,0.039370X0.027559*%
%ADD26R,0.070000X0.059800*%
%ADD27R,0.020000X0.027500*%
%ADD28C,0.035000*%
%ADD29C,0.015748*%
%ADD30C,0.010000*%
G04 APERTURE END LIST*
G54D10*
G54D11*
X56456Y-30614D03*
X55456Y-30614D03*
X54456Y-30614D03*
X51456Y-30614D03*
X52456Y-30614D03*
X53456Y-30614D03*
X49456Y-30614D03*
X48456Y-30614D03*
X47456Y-30614D03*
X45456Y-30614D03*
X44456Y-30614D03*
X56456Y-11614D03*
X55456Y-11614D03*
X54456Y-11614D03*
X53456Y-11614D03*
X52456Y-11614D03*
X51456Y-11614D03*
X50456Y-11614D03*
X49456Y-11614D03*
X47856Y-11614D03*
X46856Y-11614D03*
X45856Y-11614D03*
X44856Y-11614D03*
X43856Y-11614D03*
X42856Y-11614D03*
X41856Y-11614D03*
X40856Y-11614D03*
X46456Y-30614D03*
G54D12*
X47933Y-17322D03*
X47933Y-16535D03*
X47933Y-15748D03*
X47933Y-14960D03*
X47933Y-14173D03*
G54D13*
X53641Y-16732D03*
X53641Y-15748D03*
X53641Y-14763D03*
G54D14*
X50688Y-17913D03*
X50688Y-13582D03*
G54D15*
X45177Y-23637D03*
G54D16*
X45177Y-22637D03*
X45177Y-21637D03*
G54D15*
X41574Y-16614D03*
X37598Y-18110D03*
X37598Y-27244D03*
X40157Y-26377D03*
X42913Y-16535D03*
X51574Y-29015D03*
G54D17*
X42952Y-29724D03*
G54D18*
X40118Y-28858D03*
G54D17*
X42952Y-27952D03*
G54D19*
X32220Y-25070D03*
X32220Y-21070D03*
X36220Y-20070D03*
X37220Y-21070D03*
X36220Y-23070D03*
X37220Y-25070D03*
X36220Y-26070D03*
G54D20*
X50886Y-26673D03*
X48720Y-26673D03*
X44546Y-26456D03*
X46712Y-26456D03*
G54D21*
X56889Y-26377D03*
X58071Y-26377D03*
G54D22*
X48129Y-23247D03*
X48129Y-23997D03*
X46948Y-22656D03*
X46948Y-23406D03*
G54D23*
X48345Y-28543D03*
X49095Y-28543D03*
X54410Y-21259D03*
X53660Y-21259D03*
X54410Y-22244D03*
X53660Y-22244D03*
X54410Y-20275D03*
X53660Y-20275D03*
X47065Y-20767D03*
X47815Y-20767D03*
X54016Y-23523D03*
X53266Y-23523D03*
X45195Y-15944D03*
X45945Y-15944D03*
X45294Y-18602D03*
X46044Y-18602D03*
X45294Y-17125D03*
X46044Y-17125D03*
X45195Y-14763D03*
X45945Y-14763D03*
X40020Y-16535D03*
X39270Y-16535D03*
X41615Y-24114D03*
X40865Y-24114D03*
X46376Y-29035D03*
X47126Y-29035D03*
X45256Y-28346D03*
X44506Y-28346D03*
G54D24*
X51738Y-23710D03*
X51738Y-23454D03*
X51738Y-23198D03*
X51738Y-22942D03*
X51738Y-22686D03*
X51738Y-22430D03*
X51738Y-22174D03*
X51738Y-21920D03*
X51738Y-21664D03*
X51738Y-21408D03*
X51738Y-21152D03*
X51738Y-20896D03*
X51738Y-20640D03*
X51738Y-20384D03*
X49442Y-20384D03*
X49442Y-20640D03*
X49442Y-20896D03*
X49442Y-21152D03*
X49442Y-21408D03*
X49442Y-21664D03*
X49442Y-21920D03*
X49442Y-22174D03*
X49442Y-22430D03*
X49442Y-22686D03*
X49442Y-22942D03*
X49442Y-23198D03*
X49442Y-23454D03*
X49442Y-23710D03*
G54D23*
X50867Y-24606D03*
X50117Y-24606D03*
G54D25*
X57527Y-22389D03*
X56901Y-22389D03*
X57527Y-21842D03*
X56901Y-21842D03*
G54D26*
X39682Y-21930D03*
X40682Y-21930D03*
X41680Y-21930D03*
X42680Y-21930D03*
X42680Y-18384D03*
X41680Y-18384D03*
X40682Y-18384D03*
X39682Y-18384D03*
G54D27*
X53581Y-27853D03*
X54081Y-27853D03*
X54579Y-27853D03*
X55079Y-27853D03*
X55079Y-25689D03*
X54579Y-25689D03*
X54081Y-25689D03*
X53581Y-25689D03*
G54D28*
X46062Y-12598D03*
X37795Y-16732D03*
X38976Y-25984D03*
X56594Y-27854D03*
X50590Y-22539D03*
X46358Y-20767D03*
X52362Y-24311D03*
X52854Y-15846D03*
X44389Y-15944D03*
X47539Y-27263D03*
X47736Y-22637D03*
X48622Y-22637D03*
G54D29*
X49442Y-23710D02*
X49442Y-23931D01*
X49442Y-23931D02*
X50117Y-24606D01*
X49442Y-23710D02*
X49419Y-23710D01*
X49132Y-23997D02*
X48129Y-23997D01*
X49419Y-23710D02*
X49132Y-23997D01*
X46948Y-23406D02*
X46948Y-23818D01*
X46948Y-23818D02*
X45964Y-24803D01*
X48129Y-23997D02*
X48050Y-23997D01*
X48050Y-23997D02*
X47244Y-24803D01*
X54016Y-23523D02*
X56988Y-23523D01*
X57480Y-23031D02*
X57480Y-22342D01*
X56988Y-23523D02*
X57480Y-23031D01*
X51673Y-26673D02*
X50886Y-26673D01*
X54016Y-24329D02*
X54016Y-23523D01*
X51673Y-26673D02*
X54016Y-24329D01*
X49442Y-23710D02*
X49442Y-23710D01*
X39270Y-16535D02*
X39270Y-15158D01*
X47736Y-13976D02*
X47933Y-14173D01*
X40452Y-13976D02*
X47736Y-13976D01*
X39270Y-15158D02*
X40452Y-13976D01*
X39270Y-16535D02*
X39270Y-17973D01*
X39270Y-17973D02*
X39682Y-18384D01*
X39682Y-18384D02*
X40682Y-18384D01*
X39270Y-16535D02*
X39270Y-16973D01*
X37795Y-16732D02*
X39073Y-16732D01*
X40157Y-26377D02*
X39370Y-26377D01*
X39370Y-26377D02*
X38976Y-25984D01*
X39073Y-16732D02*
X39270Y-16535D01*
X40118Y-28858D02*
X40118Y-26417D01*
X40118Y-26417D02*
X40157Y-26377D01*
X50886Y-26673D02*
X53661Y-26594D01*
X54579Y-27512D02*
X54579Y-27853D01*
X53661Y-26594D02*
X54579Y-27512D01*
X40118Y-28858D02*
X40118Y-27992D01*
X49390Y-24803D02*
X50886Y-26673D01*
X43307Y-24803D02*
X45964Y-24803D01*
X45964Y-24803D02*
X47244Y-24803D01*
X47244Y-24803D02*
X49390Y-24803D01*
X40118Y-27992D02*
X43307Y-24803D01*
X49456Y-30614D02*
X49456Y-29160D01*
X49456Y-29160D02*
X49095Y-28543D01*
G54D30*
X53641Y-16732D02*
X54035Y-16732D01*
X54456Y-16311D02*
X54456Y-11614D01*
X54035Y-16732D02*
X54456Y-16311D01*
X53641Y-14763D02*
X53543Y-14763D01*
X53456Y-14677D02*
X53456Y-11614D01*
X53543Y-14763D02*
X53456Y-14677D01*
X47933Y-15748D02*
X46142Y-15748D01*
X46142Y-15748D02*
X45945Y-15944D01*
X47933Y-15748D02*
X48622Y-15748D01*
X49456Y-14913D02*
X49456Y-11614D01*
X48622Y-15748D02*
X49456Y-14913D01*
G54D29*
X56594Y-27854D02*
X57283Y-27854D01*
X54081Y-27999D02*
X54921Y-28838D01*
X54921Y-28838D02*
X55610Y-28838D01*
X55610Y-28838D02*
X56594Y-27854D01*
X54081Y-27853D02*
X54081Y-27999D01*
X58071Y-27066D02*
X58071Y-26377D01*
X57283Y-27854D02*
X58071Y-27066D01*
X51738Y-23198D02*
X51738Y-23454D01*
X51738Y-22942D02*
X51738Y-23198D01*
X51738Y-22686D02*
X51738Y-22942D01*
X51738Y-22686D02*
X50737Y-22686D01*
X50737Y-22686D02*
X50590Y-22539D01*
X51738Y-20384D02*
X51170Y-20384D01*
X50590Y-20964D02*
X50590Y-22539D01*
X51170Y-20384D02*
X50590Y-20964D01*
X50867Y-24606D02*
X50867Y-22815D01*
X50049Y-22686D02*
X50196Y-22539D01*
X50196Y-22539D02*
X50590Y-22539D01*
X49442Y-22686D02*
X50049Y-22686D01*
X50286Y-22942D02*
X50590Y-22637D01*
X50590Y-22637D02*
X50590Y-22539D01*
X50286Y-22942D02*
X49442Y-22942D01*
X50867Y-22815D02*
X50590Y-22539D01*
X47065Y-20767D02*
X46358Y-20767D01*
X50867Y-24606D02*
X52066Y-24606D01*
X52066Y-24606D02*
X52362Y-24311D01*
X53641Y-15748D02*
X52952Y-15748D01*
X52952Y-15748D02*
X52854Y-15846D01*
X45195Y-15944D02*
X44389Y-15944D01*
X47539Y-27263D02*
X47755Y-27263D01*
X47755Y-27263D02*
X48720Y-26673D01*
X46712Y-26456D02*
X46732Y-26456D01*
X46732Y-26456D02*
X47539Y-27263D01*
X42913Y-16535D02*
X42913Y-18151D01*
X42913Y-18151D02*
X42680Y-18384D01*
X47456Y-30614D02*
X47456Y-30527D01*
X44685Y-29724D02*
X42952Y-29724D01*
X44881Y-29724D02*
X44685Y-29724D01*
X46850Y-29724D02*
X44881Y-29724D01*
X47456Y-30527D02*
X46850Y-29724D01*
X47456Y-30614D02*
X47161Y-29069D01*
X47161Y-29069D02*
X47126Y-29035D01*
X48456Y-30614D02*
X47456Y-30614D01*
G54D30*
X56889Y-26377D02*
X56889Y-25688D01*
X54468Y-24803D02*
X53581Y-25689D01*
X56003Y-24803D02*
X54468Y-24803D01*
X56889Y-25688D02*
X56003Y-24803D01*
X48345Y-28543D02*
X47834Y-28543D01*
X47637Y-28346D02*
X45256Y-28346D01*
X47834Y-28543D02*
X47637Y-28346D01*
X41680Y-21930D02*
X41680Y-21601D01*
X41149Y-21070D02*
X37220Y-21070D01*
X41680Y-21601D02*
X41149Y-21070D01*
X41615Y-24114D02*
X41595Y-22015D01*
X41595Y-22015D02*
X41680Y-21930D01*
X37220Y-21070D02*
X37220Y-20653D01*
X37220Y-20653D02*
X37598Y-20275D01*
X37598Y-20275D02*
X37598Y-18110D01*
X40865Y-24114D02*
X40845Y-22093D01*
X40845Y-22093D02*
X40682Y-21930D01*
X37220Y-25070D02*
X39672Y-25070D01*
X39672Y-25070D02*
X40865Y-24114D01*
X37220Y-25070D02*
X37220Y-26866D01*
X37220Y-26866D02*
X37598Y-27244D01*
X46044Y-18602D02*
X46653Y-18602D01*
X46653Y-18602D02*
X47933Y-17322D01*
X47933Y-16535D02*
X46634Y-16535D01*
X46634Y-16535D02*
X46044Y-17125D01*
X47933Y-14960D02*
X46142Y-14960D01*
X46142Y-14960D02*
X45945Y-14763D01*
X54410Y-21259D02*
X56397Y-21259D01*
X56948Y-21811D02*
X56948Y-21889D01*
X56397Y-21259D02*
X56948Y-21811D01*
X54410Y-20275D02*
X57086Y-20275D01*
X57480Y-20669D02*
X57480Y-21889D01*
X57086Y-20275D02*
X57480Y-20669D01*
X54410Y-22244D02*
X55216Y-22244D01*
X55314Y-22342D02*
X56948Y-22342D01*
X55216Y-22244D02*
X55314Y-22342D01*
X49442Y-22430D02*
X49201Y-22430D01*
X48228Y-20964D02*
X47815Y-20767D01*
X48720Y-21456D02*
X48228Y-20964D01*
X48720Y-21948D02*
X48720Y-21456D01*
X49201Y-22430D02*
X48720Y-21948D01*
X45294Y-18602D02*
X45294Y-18878D01*
X49442Y-19914D02*
X49442Y-20384D01*
X49015Y-19488D02*
X49442Y-19914D01*
X45903Y-19488D02*
X49015Y-19488D01*
X45294Y-18878D02*
X45903Y-19488D01*
X49442Y-20640D02*
X49183Y-20640D01*
X44586Y-17833D02*
X45294Y-17125D01*
X44586Y-19094D02*
X44586Y-17833D01*
X45275Y-19783D02*
X44586Y-19094D01*
X48326Y-19783D02*
X45275Y-19783D01*
X49183Y-20640D02*
X48326Y-19783D01*
X49442Y-20896D02*
X48849Y-20896D01*
X44586Y-14763D02*
X45195Y-14763D01*
X43897Y-15452D02*
X44586Y-14763D01*
X43897Y-19192D02*
X43897Y-15452D01*
X44980Y-20275D02*
X43897Y-19192D01*
X48228Y-20275D02*
X44980Y-20275D01*
X48849Y-20896D02*
X48228Y-20275D01*
X51738Y-20896D02*
X53296Y-20896D01*
X53296Y-20896D02*
X53660Y-21259D01*
X51738Y-21152D02*
X51959Y-21152D01*
X53051Y-22244D02*
X53660Y-22244D01*
X51959Y-21152D02*
X53051Y-22244D01*
X51738Y-20640D02*
X52489Y-20640D01*
X52854Y-20275D02*
X53660Y-20275D01*
X52489Y-20640D02*
X52854Y-20275D01*
X51738Y-23710D02*
X53080Y-23710D01*
X53080Y-23710D02*
X53266Y-23523D01*
X49442Y-23198D02*
X49182Y-23198D01*
X47717Y-22656D02*
X46948Y-22656D01*
X47736Y-22637D02*
X47717Y-22656D01*
X49182Y-23198D02*
X48622Y-22637D01*
X46948Y-22656D02*
X46195Y-22656D01*
X46195Y-22656D02*
X45177Y-21637D01*
X49442Y-23454D02*
X48749Y-23454D01*
X48542Y-23247D02*
X48129Y-23247D01*
X48749Y-23454D02*
X48542Y-23247D01*
X45177Y-22637D02*
X44586Y-22637D01*
X48129Y-22440D02*
X48129Y-23247D01*
X47834Y-22145D02*
X48129Y-22440D01*
X47145Y-22145D02*
X47834Y-22145D01*
X45866Y-20866D02*
X47145Y-22145D01*
X44488Y-20866D02*
X45866Y-20866D01*
X44291Y-21062D02*
X44488Y-20866D01*
X44291Y-22342D02*
X44291Y-21062D01*
X44586Y-22637D02*
X44291Y-22342D01*
X41680Y-18384D02*
X41680Y-19436D01*
X43799Y-22259D02*
X45177Y-23637D01*
X43799Y-21555D02*
X43799Y-22259D01*
X41680Y-19436D02*
X43799Y-21555D01*
X40020Y-16535D02*
X41496Y-16535D01*
X41680Y-16719D02*
X41680Y-18384D01*
X41496Y-16535D02*
X41680Y-16719D01*
X40099Y-16614D02*
X40020Y-16535D01*
G54D29*
X53581Y-27853D02*
X53581Y-28800D01*
X53366Y-29015D02*
X51574Y-29015D01*
X53581Y-28800D02*
X53366Y-29015D01*
X46376Y-29035D02*
X44783Y-29035D01*
X44506Y-28758D02*
X44506Y-28346D01*
X44783Y-29035D02*
X44506Y-28758D01*
X42952Y-27952D02*
X42952Y-26909D01*
X44350Y-26653D02*
X44546Y-26456D01*
X43208Y-26653D02*
X44350Y-26653D01*
X42952Y-26909D02*
X43208Y-26653D01*
X42952Y-27952D02*
X44113Y-27952D01*
X44113Y-27952D02*
X44506Y-28346D01*
M02*
