M48
;DRILL file {Pcbnew (2014-02-26 BZR 4721)-product} date Wednesday, 20 August 2014 20:09:29
;FORMAT={2:4/ absolute / inch / suppress leading zeros}
FMAT,2
INCH,TZ
T1C0.025
T2C0.032
T3C0.040
T4C0.043
T5C0.079
T6C0.087
%
G90
G05
M72
T1
X37795Y-16732
X38976Y-25984
X44390Y-15945
X46063Y-12598
X46358Y-20768
X47539Y-27264
X47736Y-22638
X48622Y-22638
X50591Y-22539
X52362Y-24311
X52854Y-15846
X56594Y-27854
T2
X40857Y-11614
X41857Y-11614
X42857Y-11614
X43857Y-11614
X44457Y-30614
X44857Y-11614
X45457Y-30614
X45857Y-11614
X46457Y-30614
X46857Y-11614
X47457Y-30614
X47857Y-11614
X48457Y-30614
X49457Y-11614
X49457Y-30614
X50457Y-11614
X51457Y-11614
X51457Y-30614
X52457Y-11614
X52457Y-30614
X53457Y-11614
X53457Y-30614
X54457Y-11614
X54457Y-30614
X55457Y-11614
X55457Y-30614
X56457Y-11614
X56457Y-30614
T3
X37598Y-18110
X37598Y-27244
X40157Y-26378
X41575Y-16614
X42913Y-16535
X45177Y-21638
X45177Y-22638
X45177Y-23638
X51575Y-29016
T4
X47933Y-14173
X47933Y-14961
X47933Y-15748
X47933Y-16535
X47933Y-17323
X53642Y-14764
X53642Y-15748
X53642Y-16732
T5
X32220Y-21071
X32220Y-25071
X36220Y-20071
X36220Y-23071
X36220Y-26071
X37220Y-21071
X37220Y-25071
T6
X50689Y-13583
X50689Y-17913
T0
M30
